<?xml version="1.0" encoding="UTF-8" standalone="no"?>
<!DOCTYPE svg PUBLIC "-//W3C//DTD SVG 1.1//EN" "http://www.w3.org/Graphics/SVG/1.1/DTD/svg11.dtd">
<svg width="100%" height="100%" viewBox="0 0 404 404" version="1.1" xmlns="http://www.w3.org/2000/svg" xmlns:xlink="http://www.w3.org/1999/xlink" xml:space="preserve" xmlns:serif="http://www.serif.com/" style="fillRule:evenodd;clip-rule:evenodd;stroke-linejoin:round;stroke-miterlimit:2;">
    <g transform="matrix(1,0,0,1,-2576.96,-690)">
        <g id="Themify" transform="matrix(0.97588,0,0,0.976348,2032.22,699.358)">
            <rect x="558.205" y="-9.585" width="413.063" height="412.865" style="fill:none;"/>
            <clipPath id="_clip1">
                <rect x="558.205" y="-9.585" width="413.063" height="412.865"/>
            </clipPath>
            <g clip-path="url(#_clip1)">
                <g transform="matrix(1.02472,0,0,1.02423,558.153,-9.63632)">
                    <path id="Bg" d="M403.15,88.693C403.15,39.742 363.408,0 314.457,0L88.693,0C39.742,0 0,39.742 0,88.693L0,314.457C0,363.408 39.742,403.15 88.693,403.15L314.457,403.15C363.408,403.15 403.15,363.408 403.15,314.457L403.15,88.693Z" style="fill:none;"/>
                    <clipPath id="_clip2">
                        <path id="Bg1" serif:id="Bg" d="M403.15,88.693C403.15,39.742 363.408,0 314.457,0L88.693,0C39.742,0 0,39.742 0,88.693L0,314.457C0,363.408 39.742,403.15 88.693,403.15L314.457,403.15C363.408,403.15 403.15,363.408 403.15,314.457L403.15,88.693Z"/>
                    </clipPath>
                    <g clip-path="url(#_clip2)">
                        <rect id="Effect" x="0" y="0" width="403.15" height="403.15" style="fill:url(#_Radial3);"/>
                    </g>
                    <g id="curve3" transform="matrix(0.254284,0,0,0.254284,-573.975,-104.073)">
                        <path d="M3057.16,1460.5C3135.56,1547 3057.26,1650 2952.66,1650L2771.86,1650C2826.06,1630.1 2840.86,1593.5 2853.56,1554.2C2863.86,1522.3 2872.76,1488.6 2900.26,1460.5C2936.66,1423.2 3008.26,1406.6 3057.16,1460.5ZM3332.86,1501.4C3424.06,1410.5 3468.26,1293.9 3472.56,1180.7C3448.36,1213.6 3423.46,1245.7 3397.06,1277C3390.46,1284.9 3383.66,1292.8 3376.86,1300.6C3375.76,1315 3364.96,1326.7 3351.06,1329.4C3348.76,1331.9 3346.46,1334.5 3344.16,1337C3344.66,1339.9 3344.96,1342.9 3344.96,1346C3344.96,1355.9 3341.96,1365.1 3336.86,1372.7C3341.86,1378.4 3344.96,1385.8 3344.96,1394C3344.96,1411.7 3330.66,1426 3312.96,1426C3297.96,1426 3285.26,1415.6 3281.86,1401.6C3279.06,1404.4 3276.26,1407.2 3273.46,1410C3247.16,1436 3221.06,1461.5 3190.56,1482.6C3186.96,1485.1 3183.06,1486.8 3179.06,1487.7C3182.76,1492.9 3184.96,1499.3 3184.96,1506.2C3184.96,1523.8 3170.66,1538.2 3152.96,1538.2C3151.56,1538.2 3150.16,1538.1 3148.86,1537.9C3145.56,1547.3 3136.66,1554 3126.26,1554C3123.96,1554 3121.86,1553.7 3119.76,1553.1C3119.06,1558.3 3117.96,1563.5 3116.56,1568.7C3108.96,1596.5 3093.16,1619.8 3072.56,1637.9C3164.36,1619.1 3257.26,1576.8 3332.86,1501.4ZM2993.46,1394.5C2993.86,1392.4 2994.46,1390.3 2995.26,1388.2C2999.66,1376.6 3004.76,1365.3 3010.66,1354.4C3013.96,1348.4 3018.86,1343.8 3024.56,1340.9C3024.56,1334.5 3026.56,1328.2 3030.56,1322.6C3051.86,1292.6 3077.56,1266.9 3103.66,1241.1C3146.56,1198.7 3190.76,1157.5 3236.86,1118.6C3251.66,1106.1 3266.66,1093.8 3281.76,1081.8C3281.26,1079.5 3280.96,1077.1 3280.96,1074.6C3280.96,1056.9 3295.26,1042.6 3312.96,1042.6C3318.36,1042.6 3323.56,1043.9 3327.96,1046.3C3335.86,1040.4 3343.76,1034.6 3351.76,1028.8C3378.36,1009.4 3405.26,990.5 3432.26,971.5C3405.46,913.5 3365.86,863.7 3315.16,828.3C3125.26,695.9 2817.26,732.2 2680.86,1003.9C2559.06,1246.4 2774.76,1149.3 2791.96,1255.5C2812.66,1382.4 2518.56,1398 2700.76,1576C2716.66,1591.5 2739.66,1605.6 2767.86,1617.1C2801.66,1602.4 2811.86,1579.3 2823.16,1544.4C2836.26,1503.8 2846.46,1469.7 2877.36,1438.1C2901.96,1412.9 2936.66,1396.9 2971.76,1394.4C2979.16,1393.8 2986.36,1393.9 2993.46,1394.5ZM3038.86,1369.6C3033.76,1379.1 3029.16,1389 3025.16,1399.5C3045.86,1407.3 3064.66,1420.1 3080.46,1437.3C3094.26,1452.5 3105.36,1469.4 3112.56,1487.6C3123.46,1483.6 3133.76,1479 3143.46,1473.9C3135.16,1453.9 3122.56,1434.1 3105.26,1415.1C3085.96,1394.2 3063.26,1379.1 3038.86,1369.6ZM3560.36,960.8C3558.26,958.7 3556.16,956.6 3554.06,954.6C3543.76,944.4 3527.86,943.1 3516.06,951.6C3373.66,1053.2 3284.86,1107 3126.16,1263.9C3101.56,1288.2 3076.96,1312.6 3056.66,1341.1C3083.56,1352.4 3108.66,1369.6 3130.06,1392.9C3148.76,1413.3 3162.66,1434.7 3172.36,1456.3C3201.46,1436.2 3226.16,1411.7 3250.96,1387.3C3409.66,1230.3 3460.56,1139.2 3563.36,998.4C3571.96,986.7 3570.66,970.9 3560.36,960.8ZM2997.46,1237.3C2960.26,1275.1 2899.46,1275.6 2861.66,1238.5C2823.86,1201.3 2823.36,1140.5 2860.46,1102.7C2897.66,1064.9 2958.46,1064.4 2996.26,1101.5C3034.06,1138.7 3034.56,1199.5 2997.46,1237.3ZM3184.96,930C3184.96,924.3 3185.96,918.9 3187.76,913.9C3186.86,914 3185.86,914 3184.96,914C3167.26,914 3152.96,899.7 3152.96,882C3152.96,864.3 3167.26,850 3184.96,850C3202.66,850 3216.96,864.3 3216.96,882C3216.96,882.9 3216.96,883.9 3216.86,884.8C3221.86,883 3227.26,882 3232.96,882C3242.86,882 3252.06,885 3259.66,890.1C3265.36,885.1 3272.76,882 3280.96,882C3298.66,882 3312.96,896.3 3312.96,914C3312.96,931.7 3298.66,946 3280.96,946C3280.06,946 3279.16,946 3278.26,945.9C3277.66,947.5 3277.06,949.1 3276.26,950.7C3279.16,953.6 3280.96,957.6 3280.96,962C3280.96,964.3 3280.46,966.6 3279.56,968.6C3280.46,971.6 3280.96,974.7 3280.96,978C3280.96,995.7 3266.66,1010 3248.96,1010C3231.26,1010 3216.96,995.7 3216.96,978C3216.96,977.1 3216.96,976.2 3217.06,975.3C3215.46,974.7 3213.86,974.1 3212.26,973.3C3209.36,976.2 3205.36,978 3200.96,978C3192.16,978 3184.96,970.8 3184.96,962C3184.96,957.6 3186.76,953.6 3189.66,950.7C3186.66,944.4 3184.96,937.4 3184.96,930ZM3009.16,863.2C3009.16,845.5 3023.46,831.2 3041.16,831.2C3058.76,831.2 3073.16,845.5 3073.16,863.2C3073.16,864.6 3073.06,865.9 3072.86,867.3C3082.26,870.5 3088.96,879.4 3088.96,889.9C3088.96,903.1 3078.26,913.8 3065.06,913.8C3053.66,913.8 3044.06,905.8 3041.66,895.2L3041.16,895.2C3041.16,912.8 3026.76,927.2 3009.16,927.2C2991.46,927.2 2977.16,912.8 2977.16,895.2C2959.46,895.2 2945.16,880.8 2945.16,863.2C2945.16,850.5 2952.46,839.6 2963.06,834.4L2963.06,834C2963.06,825.2 2970.16,818 2979.06,818C2987.86,818 2995.06,825.2 2995.06,834C2995.06,834.9 2994.96,835.7 2994.86,836.5C3003.46,842.3 3009.16,852 3009.16,863.2Z" style="fill:white;fill-opacity:0.8;fillRule:nonzero;"/>
                    </g>
                </g>
            </g>
        </g>
    </g>
    <defs>
        <radialGradient id="_Radial3" cx="0" cy="0" r="1" gradientUnits="userSpaceOnUse" gradientTransform="matrix(201.57,0,0,201.57,201.57,201.57)"><stop offset="0" style="stop-color:black;stop-opacity:0.2"/><stop offset="1" style="stop-color:rgb(194,194,193);stop-opacity:0.2"/></radialGradient>
    </defs>
</svg>